HIERARCHY
ROOT Hips
{
  OFFSET 49.1216 87.2256 -127.831
  CHANNELS 6 Xposition Yposition Zposition Zrotation Xrotation Yrotation
  JOINT RightUpLeg
  {
    OFFSET -8.9458 -8.66707 0.101652
    CHANNELS 3 Zrotation Xrotation Yrotation
    JOINT RightLeg
    {
      OFFSET 0 -44.4227 1.3727
      CHANNELS 3 Zrotation Xrotation Yrotation
      JOINT RightFoot
      {
        OFFSET 0.253549 -42.0924 -1.46059
        CHANNELS 3 Zrotation Xrotation Yrotation
        JOINT RightToes
        {
          OFFSET 0.04 -4.41509 8.4991
          CHANNELS 3 Zrotation Xrotation Yrotation
          End Site
          {
            OFFSET -0.08 -0.137448 9.77979
          }
        }
      }
    }
  }
  JOINT Spine
  {
    OFFSET 0 11.8905 0
    CHANNELS 3 Zrotation Xrotation Yrotation
    JOINT Spine1
    {
      OFFSET 0 25.6574 0.127663
      CHANNELS 3 Zrotation Xrotation Yrotation
      JOINT HEad
      {
        OFFSET 0 8.73416 0.011341
        CHANNELS 3 Zrotation Xrotation Yrotation
        End Site
        {
          OFFSET -0.29 12.7742 2.51395
        }
      }
      JOINT LeftShoulder1
      {
        OFFSET 8.99 -0.362252 -0.22
        CHANNELS 3 Zrotation Xrotation Yrotation
        JOINT LeftArm
        {
          OFFSET 10.2827 -0.00338 0.322123
          CHANNELS 3 Zrotation Xrotation Yrotation
          JOINT LeftForeArm
          {
            OFFSET 32.7669 0.099144 -1.42434
            CHANNELS 3 Zrotation Xrotation Yrotation
            JOINT LeftHand
            {
              OFFSET 27.5643 0.085362 1.02216
              CHANNELS 3 Zrotation Xrotation Yrotation
              End Site
              {
                OFFSET 16.7443 -0.6 1.50291
              }
            }
          }
        }
      }
      JOINT RightShoulder
      {
        OFFSET -8.99 -0.362252 -0.22
        CHANNELS 3 Zrotation Xrotation Yrotation
        JOINT RightArm
        {
          OFFSET -10.2827 -0.00338 0.322123
          CHANNELS 3 Zrotation Xrotation Yrotation
          JOINT RightForeArm
          {
            OFFSET -32.8971 0.099144 -1.42434
            CHANNELS 3 Zrotation Xrotation Yrotation
            JOINT RightHand
            {
              OFFSET -27.4921 0.085362 1.02216
              CHANNELS 3 Zrotation Xrotation Yrotation
              End Site
              {
                OFFSET -16.6312 -0.6 1.50291
              }
            }
          }
        }
      }
    }
  }
  JOINT LeftUpLeg
  {
    OFFSET 8.9458 -8.66707 0.101652
    CHANNELS 3 Zrotation Xrotation Yrotation
    JOINT LeftLeg
    {
      OFFSET 0 -44.4227 1.3727
      CHANNELS 3 Zrotation Xrotation Yrotation
      JOINT LeftFoot
      {
        OFFSET -0.253549 -42.0924 -1.46059
        CHANNELS 3 Zrotation Xrotation Yrotation
        JOINT LeftToes
        {
          OFFSET -0.04 -4.41509 8.4991
          CHANNELS 3 Zrotation Xrotation Yrotation
          End Site
          {
            OFFSET 0.08 -0.047448 9.77979
          }
        }
      }
    }
  }
}
MOTION
Frames:	12
Frame Time:	0.0166667
43.7839 76.9867 -120.956 2.69512 -12.6438 -24.6431 -27.2458 -40.5635 -14.1156 -60.9777 68.5043 77.5105 27.9909 3.09858 -0.265647 0.0462048 0.000533403 0.662642 -24.6412 53.4857 14.624 -0.0446503 0.06369 -0.0165889 -20.8681 -5.69104 20.3413 -1.76556e-031 -6.36111e-015 -1.59028e-015 -156.041 -61.8709 -107.719 -100.022 64.8844 -26.6311 4.23159 1.74059 -3.75336 -3.97845 27.5878 6.51481 112.721 -11.7612 105.866 85.4408 65.0866 44.198 -9.1507 19.5296 -20.5249 16.0166 -40.5233 15.6011 49.4363 56.4352 -31.9744 -19.1588 -0.992982 -0.930521 -1.00516e-008 1.56021e-007 -4.87131e-009 
43.9813 74.6771 -121.927 2.29138 -13.3561 -24.8092 -27.3572 -43.0063 -13.1783 -68.6468 70.152 85.2129 32.2405 3.74974 -0.770347 0.0462048 0.000533403 0.662642 -31.5781 57.6717 20.2379 -0.0149162 0.0276388 -0.0143698 -18.9657 -9.0891 19.3283 1.59028e-015 3.18055e-015 1.59028e-015 -154.791 -61.4723 -110.598 -106.375 59.7992 -25.5618 12.0872 20.8411 -6.25849 -1.1547 22.6139 5.35386 107.877 -20.9151 99.7055 78.7073 62.9593 51.8675 -8.85996 16.0486 -0.940595 15.3419 -41.1921 15.2523 51.5769 56.2731 -33.0372 -15.8041 -0.59445 -0.553947 -1.00516e-008 1.56021e-007 -4.87131e-009 
44.21 73.5038 -123.128 1.64127 -13.3738 -24.1155 -27.0179 -44.8201 -11.5793 -72.4428 72.3041 88.71 36.906 4.57335 -1.93781 0.0462048 0.000533403 0.662642 -37.7462 60.8328 25.3843 0.071801 -0.0780687 -0.01419 -16.6747 -12.5041 18.281 0 1.27222e-014 -0 -153.835 -60.3245 -113.467 -109.905 57.3524 -25.6748 7.86751 15.0226 -3.27325 1.79706 17.9958 4.73287 103.644 -26.3311 94.7136 75.3382 61.872 56.6114 -7.24031 20.8205 -2.03991 13.652 -41.3926 13.7341 52.1615 54.0275 -32.7298 -12.6479 0.536685 0.213504 -1.00516e-008 1.56021e-007 -4.87131e-009 
44.4728 72.8338 -124.521 1.26591 -12.4844 -21.6824 -27.7377 -45.9546 -10.83 -72.0215 75.1197 87.6263 41.9017 5.31307 -3.59165 0.0462048 0.000533403 0.662642 -41.239 63.3404 27.7333 0.201538 -0.24725 -0.0183988 -13.946 -15.8267 17.2174 1.59028e-015 -3.18055e-015 -0 -152.661 -58.7812 -116.098 -111.751 56.4084 -26.2862 12.2007 24.525 -5.21552 4.8401 13.8401 4.69576 100.422 -29.4664 90.7879 73.5639 61.8113 59.7775 -6.6976 17.787 6.30374 10.2861 -41.8292 10.1843 51.5962 50.1422 -31.5922 -9.67639 2.34967 1.28167 -1.00516e-008 1.56021e-007 -4.87131e-009 
44.6587 72.975 -125.968 0.86186 -12.1496 -19.4268 -27.552 -45.773 -7.96193 -64.376 78.3118 78.8164 47.0225 5.91725 -5.54946 0.0462048 0.000533403 0.662642 -46.4267 65.293 32.0531 0.37674 -0.46592 -0.0240311 -10.8326 -19.0156 16.0962 8.82781e-032 3.18055e-015 -1.59028e-015 -150.874 -56.8877 -118.213 -112.564 56.393 -27.1491 9.76531 20.0545 -3.58884 8.4776 10.0958 4.72036 97.7364 -31.0278 87.8327 72.4404 62.2459 62.2341 -6.35932 20.7117 4.10777 6.7587 -40.8653 6.75627 50.7484 44.9759 -30.6115 -7.35598 4.76871 2.58741 -1.00516e-008 1.56021e-007 -4.87131e-009 
44.7706 73.7426 -127.369 0.493633 -12.3075 -17.3245 -26.6404 -44.1729 -3.51688 -42.4531 80.7001 55.0413 52.0583 6.54159 -7.6903 0.0462048 0.000533403 0.662642 -50.004 66.4224 35.14 0.668904 -0.791638 -0.0291859 -8.39114 -21.1129 15.2314 7.95139e-016 0 -2.78299e-015 -149.05 -55.6666 -119.326 -112.484 56.8125 -28.3642 12.0683 24.9362 -4.42973 11.1328 7.62698 4.99845 95.9353 -31.7525 85.7304 71.7165 62.9125 64.218 -6.18812 18.6649 7.48168 3.59404 -38.6825 3.75684 49.3277 39.1885 -29.6829 -5.32567 7.65227 4.01582 -1.00516e-008 1.56021e-007 -4.87131e-009 
44.8463 74.6874 -128.574 0.217614 -12.8881 -15.3057 -25.5338 -41.2348 1.64881 -9.9579 79.989 19.8624 56.8896 7.41796 -9.95395 0.0462048 0.000533403 0.662642 -51.8815 66.9683 36.8385 0.90718 -1.06648 -0.0338913 -6.46962 -22.4012 14.3828 -7.95139e-016 -6.36111e-015 -3.97569e-015 -146.938 -54.821 -119.381 -111.613 57.4761 -29.846 10.9748 21.6806 -3.44835 13.0213 6.0994 5.50533 92.0296 -28.7866 83.886 73.833 63.7292 63.5476 -8.95492 23.5035 3.92397 2.46046 -36.9625 2.5783 46.1384 36.0181 -29.8107 -1.61687 10.4309 4.93239 -1.00516e-008 1.56021e-007 -4.87131e-009 
44.8652 75.981 -129.581 0.0613866 -13.819 -13.3608 -24.8842 -37.225 5.63327 7.34041 76.0533 -0.634151 61.46 8.67404 -12.4092 0.0462048 0.000533403 0.662642 -52.198 67.0793 37.2132 1.16143 -1.35829 -0.0358902 -5.08952 -22.9482 13.5099 7.95139e-016 -3.18055e-015 5.96354e-015 -144.636 -54.3629 -118.621 -110.033 58.2016 -31.7386 11.8482 24.3946 -3.63968 14.5003 5.33361 5.85645 87.1634 -23.5915 82.9952 67.3124 62.2011 68.9037 -10.7957 24.1986 4.49425 3.22677 -36.0123 3.26215 41.5071 35.5162 -30.5828 3.65449 12.5458 4.86223 -1.00516e-008 1.56021e-007 -4.87131e-009 
44.8771 77.4971 -130.32 0.0334299 -15.0378 -11.491 -24.7446 -32.6817 8.37283 13.0569 71.5274 -9.96355 65.7479 10.3124 -15.0733 0.0462048 0.000533403 0.662642 -51.2431 66.8265 36.4903 1.42009 -1.66446 -0.0364896 -5.54924 -23.6629 12.226 -2.78299e-015 -6.36111e-015 -1.98785e-016 -142.197 -54.2855 -116.987 -98.2695 58.616 -42.2993 6.18245 19.6133 -2.60771 8.0425 4.45676 15.7287 92.0962 -29.9163 82.6167 63.4677 61.7967 73.0551 -10.8675 25.9218 2.13317 4.53338 -35.0256 4.61072 35.7892 36.683 -30.3642 10.3338 14.0379 3.70142 -1.00516e-008 1.56021e-007 -4.87132e-009 
45.0192 79.0069 -130.688 0.164304 -16.4903 -9.67542 -25.1306 -27.936 9.95069 14.3897 67.2804 -15.1977 69.6245 12.2749 -17.8975 0.0462048 0.000533403 0.662642 -49.4857 66.2532 35.1308 1.67151 -1.96145 -0.0354074 -7.37035 -24.8807 10.58 -1.19271e-015 -6.36111e-015 1.39149e-015 -139.6 -54.344 -114.655 -91.2292 59.0207 -48.8258 4.4322 19.7219 -2.59642 9.45858 4.6118 15.1893 89.7907 -28.0044 81.5532 61.3851 61.6866 75.9059 3.20087 13.7016 6.20278 6.36736 -33.7259 6.64687 28.9593 38.6787 -28.615 18.198 14.7839 1.59227 -1.00516e-008 1.56021e-007 -4.87131e-009 
45.2034 80.6593 -130.869 0.470983 -18.12 -7.92449 -25.7877 -23.1779 10.6637 13.7408 63.4206 -18.792 73.0655 14.5187 -20.9127 0.0462048 0.000533403 0.662642 -47.2976 65.3997 33.4696 1.92106 -2.25309 -0.0308658 -9.17747 -25.383 8.9554 9.93923e-016 0 9.93923e-016 -136.776 -54.4817 -111.763 -86.8978 59.6267 -53.0116 2.88278 17.6179 -2.20942 10.2291 5.04185 14.7746 88.9176 -26.9536 81.0606 60.445 61.6117 77.5766 -3.87269 22.7727 0.70676 11.433 -31.8873 9.61207 15.9583 41.2167 -22.8515 28.0599 14.588 -1.64575 -1.00516e-008 1.56021e-007 -4.87131e-009 
45.458 82.2516 -130.858 0.930404 -19.8376 -6.24209 -26.6157 -18.5755 10.7433 12.2764 60.0201 -21.8255 76.0306 16.9249 -23.9787 0.0462048 0.000533403 0.662642 -44.9237 64.2834 31.7302 2.15567 -2.52663 -0.025139 -11.2959 -26.7964 7.23457 2.67117e-015 0 1.98785e-016 -133.713 -54.6166 -108.496 -84.1079 60.3138 -55.8 2.86547 18.2018 -2.10247 10.9014 5.82638 14.2735 88.659 -26.3139 80.8808 60.2856 61.9397 78.3766 0.434671 16.7391 3.32927 14.912 -28.0441 11.7373 4.68552 39.4405 -17.6122 36.1438 14.7544 -5.16325 -1.00515e-008 1.56021e-007 -4.87131e-009 
